<?xml version="1.0" encoding="UTF-8" standalone="no"?>
<!-- Created with Inkscape (http://www.inkscape.org/) -->

<svg
   xmlns:dc="http://purl.org/dc/elements/1.1/"
   xmlns:cc="http://creativecommons.org/ns#"
   xmlns:rdf="http://www.w3.org/1999/02/22-rdf-syntax-ns#"
   xmlns:svg="http://www.w3.org/2000/svg"
   xmlns="http://www.w3.org/2000/svg"
   xmlns:sodipodi="http://sodipodi.sourceforge.net/DTD/sodipodi-0.dtd"
   xmlns:inkscape="http://www.inkscape.org/namespaces/inkscape"
   width="210mm"
   height="297mm"
   viewBox="0 0 210 297"
   version="1.1"
   id="svg8"
   inkscape:version="0.92.4 (5da689c313, 2019-01-14)"
   sodipodi:docname="logo.svg">
  <defs
     id="defs2" />
  <sodipodi:namedview
     id="base"
     pagecolor="#ffffff"
     bordercolor="#666666"
     borderopacity="1.0"
     inkscape:pageopacity="0.0"
     inkscape:pageshadow="2"
     inkscape:zoom="0.70710678"
     inkscape:cx="121.36988"
     inkscape:cy="753.82393"
     inkscape:document-units="mm"
     inkscape:current-layer="g4546"
     showgrid="false"
     inkscape:window-width="1920"
     inkscape:window-height="1442"
     inkscape:window-x="3229"
     inkscape:window-y="621"
     inkscape:window-maximized="1" />
  <metadata
     id="metadata5">
    <rdf:RDF>
      <cc:Work
         rdf:about="">
        <dc:format>image/svg+xml</dc:format>
        <dc:type
           rdf:resource="http://purl.org/dc/dcmitype/StillImage" />
        <dc:title></dc:title>
      </cc:Work>
    </rdf:RDF>
  </metadata>
  <g
     inkscape:label="Layer 1"
     inkscape:groupmode="layer"
     id="layer1">
    <g
       id="g4546">
      <g
         id="g4609"
         inkscape:export-filename="C:\Users\barre_000\Java_Workspace\COSC_304\COSC304Project\Lab_7\WebContent\img\logo.png"
         inkscape:export-xdpi="96"
         inkscape:export-ydpi="96">
        <g
           id="g4568">
          <g
             id="g4558"
             transform="matrix(1.0876812,0,0,0.99730224,-6.5222459,9.3246929)">
            <rect
               style="fill:#ffffff;fill-opacity:1;stroke:#262524;stroke-width:5.43544769;stroke-miterlimit:4;stroke-dasharray:none;stroke-opacity:1"
               id="rect4518"
               width="86.595329"
               height="84.444153"
               x="63.877415"
               y="101.0211" />
            <rect
               style="fill:#ffffff;fill-opacity:1;stroke:#ffffff;stroke-width:5.60224915;stroke-miterlimit:4;stroke-dasharray:none;stroke-opacity:1"
               id="rect4524-4"
               width="75.548431"
               height="6.8220687"
               x="69.40107"
               y="100.47201" />
          </g>
          <path
             style="fill:#ffffff;fill-opacity:1;stroke:#262524;stroke-width:5.92477226;stroke-miterlimit:4;stroke-dasharray:none;stroke-opacity:1"
             id="path4562"
             sodipodi:type="arc"
             sodipodi:cx="110.05503"
             sodipodi:cy="-108.03365"
             sodipodi:rx="47.093647"
             sodipodi:ry="50.119995"
             sodipodi:start="0.0015049568"
             sodipodi:end="3.1408818"
             sodipodi:open="true"
             d="M 157.14862,-107.95822 A 47.093647,50.119995 0 0 1 110.03633,-57.913662 47.093647,50.119995 0 0 1 62.961396,-107.99803"
             transform="scale(1,-1)" />
        </g>
        <path
           inkscape:connector-curvature="0"
           id="path4576"
           d="m 109.64051,58.21354 v 134.9375"
           style="fill:none;stroke:#262524;stroke-width:5.5999999;stroke-linecap:butt;stroke-linejoin:miter;stroke-miterlimit:4;stroke-dasharray:none;stroke-opacity:1" />
        <circle
           r="1.25"
           cy="139.10001"
           cx="97.900002"
           id="path4578"
           style="fill:#262524;fill-opacity:1;stroke:#262524;stroke-width:3.29999995;stroke-miterlimit:4;stroke-dasharray:none;stroke-opacity:1" />
        <circle
           r="1.25"
           cy="139.10001"
           cx="122.32501"
           id="path4578-1"
           style="fill:#262524;fill-opacity:1;stroke:#262524;stroke-width:3.29999995;stroke-miterlimit:4;stroke-dasharray:none;stroke-opacity:1" />
        <path
           transform="scale(0.26458333)"
           inkscape:connector-curvature="0"
           id="path4595"
           d="m 425.02163,477.13971 v -246.5 h 1.35483 c 0.74516,0 4.28891,0.35494 7.875,0.78877 54.10132,6.54487 101.7579,40.66196 127.75792,91.46123 10.05069,19.63718 16.01762,39.28553 19.35999,63.75 0.78809,5.76835 0.86611,18.99442 1.01251,171.625 l 0.15863,165.375 h -78.75944 -78.75944 z m 43.75,57.61984 c 1.24984,-0.85991 2.5307,-2.40634 3.41492,-4.12294 2.24239,-4.35336 1.48327,-9.19103 -1.9935,-12.70386 -4.58558,-4.63314 -12.00856,-4.31296 -16.30219,0.70318 -4.39468,5.13419 -3.13662,12.85701 2.71948,16.69408 3.13273,2.05264 8.73038,1.79007 12.16129,-0.57046 z"
           style="fill:#a6a29f;fill-opacity:1;stroke:#262524;stroke-width:6.23622036;stroke-miterlimit:4;stroke-dasharray:none;stroke-opacity:1" />
        <path
           transform="scale(0.26458333)"
           inkscape:connector-curvature="0"
           id="path4597"
           d="m 249.42822,576.51471 c -0.17515,-164.56115 -0.0475,-180.74121 1.51775,-192.375 6.65524,-49.46555 31.21912,-92.61958 68.90555,-121.05387 24.25301,-18.29881 50.724,-28.72459 81.54511,-32.11708 l 2.125,-0.2339 v 246.45243 246.45242 h -76.96841 -76.9684 z m 124.53376,-40.48025 c 2.41892,-0.7376 5.36334,-3.5973 6.34178,-6.1593 1.2137,-3.17803 0.81117,-7.53971 -0.94004,-10.18597 -2.03106,-3.06915 -4.7029,-4.61688 -8.45184,-4.89594 -2.7322,-0.20338 -3.49719,-0.0499 -5.88716,1.18135 -3.73662,1.92497 -5.61717,4.66809 -5.90226,8.60953 -0.2578,3.56399 0.49554,6.06107 2.52632,8.374 3.20821,3.65396 7.17158,4.64416 12.3132,3.07633 z"
           style="fill:#a6a29f;fill-opacity:1;stroke:#262524;stroke-width:6.23622036;stroke-miterlimit:4;stroke-dasharray:none;stroke-opacity:1" />
      </g>
    </g>
  </g>
</svg>
